<svg xmlns="http://www.w3.org/2000/svg" width="14" height="14" viewBox="0 0 14 14">
    <path fill="#F94094"
          d="M57.7009323,78.1077689 C54.8387714,78.1077689 52.5104826,80.4362984 52.5104826,83.2982186 C52.5104826,86.0385854 54.6464523,88.2838328 57.3398826,88.4703751 L57.3398826,91.7617037 L55.2414621,91.7617037 C55.0421627,91.7617037 54.8804124,91.9234539 54.8804124,92.1227533 C54.8804124,92.3220527 55.0421627,92.483803 55.2414621,92.483803 L57.3398826,92.483803 L57.3398826,94.5076066 C57.3398826,94.706906 57.5016329,94.8686562 57.7009323,94.8686562 C57.9002317,94.8686562 58.0619819,94.706906 58.0619819,94.5076066 L58.0619819,92.483803 L60.2499428,92.483803 C60.4492422,92.483803 60.6109924,92.3220527 60.6109924,92.1227533 C60.6109924,91.9234539 60.4492422,91.7617037 60.2499428,91.7617037 L58.0619819,91.7617037 L58.0619819,88.4703751 C60.755653,88.2838328 62.8916227,86.0383447 62.8916227,83.2982186 C62.8916227,80.4360577 60.5630932,78.1077689 57.7009323,78.1077689 Z M57.7009323,87.7668097 C55.2371295,87.7668097 53.2325819,85.7622621 53.2325819,83.2984593 C53.2325819,80.8346565 55.2371295,78.8301089 57.7009323,78.8301089 C60.1649757,78.8301089 62.1695234,80.8346565 62.1695234,83.2984593 C62.1695234,85.7622621 60.1649757,87.7668097 57.7009323,87.7668097 Z"
          transform="rotate(-48 -55.835 103.22)"/>
</svg>
