<svg width="32" height="32" xmlns="http://www.w3.org/2000/svg" style="margin-left:auto;margin-right:auto"
     display="block">
    <defs>
        <clipPath id="a">
            <path d="M13.9 21c2.3-1.4 3.8-3.9 3.8-6.7 0-2.9-1.5-5.4-3.8-6.8-2.3 1.4-3.8 3.9-3.8 6.8 0 2.8 1.5 5.3 3.8 6.7zm-3.8 1c.8 0 1.6-.1 2.3-.3-2.2-1.7-3.7-4.4-3.7-7.4 0-3.1 1.5-5.8 3.7-7.4-.7-.3-1.5-.4-2.3-.4-4.2 0-7.6 3.5-7.6 7.8S5.9 22 10.1 22zm7.6 0c4.2 0 7.6-3.4 7.6-7.7 0-4.3-3.4-7.8-7.6-7.8-.8 0-1.6.1-2.3.4 2.2 1.6 3.7 4.3 3.7 7.4 0 3-1.5 5.7-3.7 7.4.7.2 1.5.3 2.3.3zm-7.6 9.9c-.4 0-.7-.3-.7-.7V28H6.3c-.4 0-.7-.3-.7-.7 0-.4.3-.7.7-.7h3.1v-3.2c-4.6-.4-8.3-4.3-8.3-9.1 0-5.1 4-9.2 9-9.2 1.3 0 2.6.3 3.8.9 1.1-.6 2.4-.9 3.8-.9 2.4 0 4.6 1 6.2 2.5l5.2-5.3h-4.2c-.3 0-.7-.3-.7-.7 0-.4.4-.7.7-.7h5.9c.4 0 .7.3.7.7v6c0 .4-.3.7-.7.7-.4 0-.7-.3-.7-.7V3.3l-5.3 5.4c1.2 1.5 1.9 3.5 1.9 5.6 0 5-4.1 9.1-9 9.1-1.4 0-2.7-.3-3.8-.8-1 .4-2 .7-3.1.8v3.2h3.1c.4 0 .7.3.7.7 0 .4-.3.7-.7.7h-3.1v3.2c0 .4-.3.7-.7.7z"/>
        </clipPath>
    </defs>
    <g clip-path="url(#a)">
        <path d="M-6.4 39.5h45.5V-6.7H-6.4v46.2z" fill="#845cee"/>
    </g>
</svg>