<svg xmlns="http://www.w3.org/2000/svg" width="13" height="14" viewBox="0 0 13 14">
    <path fill="#0089FF"
          d="M123.353313,81.2210967 C123.352384,81.2192387 123.352384,81.2173808 123.351455,81.2157551 C123.316154,81.1300569 123.247642,81.0615448 123.161944,81.0262436 C123.160086,81.0255469 123.158228,81.0253146 123.156602,81.0246179 C123.117121,81.0092898 123.074388,81 123.029565,81 L119.282301,81 C119.090002,81 118.933934,81.1560683 118.933934,81.3483666 C118.933934,81.540665 119.090002,81.6967333 119.282301,81.6967333 L122.188608,81.6967333 L118.956694,84.9291112 C118.12851,84.3229533 117.111048,83.9601875 116.008351,83.9601875 C113.2465,83.9601875 111,86.2069201 111,88.9683063 C111,91.7296925 113.246733,93.9764251 116.008351,93.9764251 C118.76997,93.9764251 121.01647,91.7296925 121.01647,88.9683063 C121.01647,87.5606728 120.430517,86.2891346 119.49225,85.3782719 L122.680966,82.1893237 L122.680966,85.096095 C122.680966,85.2883933 122.837034,85.4444616 123.029332,85.4444616 C123.221631,85.4444616 123.377699,85.2883933 123.377699,85.096095 L123.377699,81.3481344 C123.377931,81.303079 123.368874,81.2605782 123.353313,81.2210967 Z M120.319737,88.968074 C120.319737,91.345328 118.385605,93.2794596 116.008351,93.2794596 C113.630865,93.2794596 111.696733,91.345328 111.696733,88.968074 C111.696733,86.5908201 113.630865,84.6566885 116.008351,84.6566885 C118.385605,84.6566885 120.319737,86.5908201 120.319737,88.968074 Z"
          transform="translate(-111 -80.837)"/>
</svg>
