<?xml version="1.0" encoding="UTF-8"?>
<svg xmlns="http://www.w3.org/2000/svg" xmlns:xlink="http://www.w3.org/1999/xlink" width="56pt" height="179pt" viewBox="0 0 56 179" version="1.1">
<defs>
<clipPath id="clip1">
  <path d="M 10.105469 105.792969 L 15.433594 173.882812 C 15.617188 176.261719 17.636719 178.09375 20.023438 178.09375 L 35.273438 178.09375 C 37.660156 178.09375 39.683594 176.261719 39.867188 173.882812 L 45.195312 105.792969 L 51.074219 98.839844 C 53.828125 95.542969 55.480469 91.335938 55.480469 86.941406 L 55.480469 50.335938 C 55.480469 48.6875 54.746094 47.039062 53.460938 46.125 C 46.480469 40.269531 38.761719 36.605469 37.292969 35.691406 C 37.109375 35.691406 36.925781 35.507812 36.925781 35.324219 L 36.925781 30.566406 C 37.660156 29.101562 38.027344 27.636719 38.210938 26.175781 C 38.394531 26.355469 38.578125 26.355469 38.761719 26.355469 C 39.316406 26.355469 40.234375 25.625 41.152344 22.332031 C 42.070312 19.035156 41.519531 17.9375 40.785156 17.570312 C 43.355469 4.941406 37.476562 4.574219 37.476562 4.574219 C 37.476562 4.574219 36.558594 2.746094 34.171875 1.464844 C 32.699219 0.730469 30.863281 0 28.476562 0 C 28.109375 0 27.742188 0 27.375 0 C 26.453125 0 25.535156 0.183594 24.617188 0.550781 C 23.515625 0.914062 22.597656 1.464844 21.679688 2.011719 C 20.207031 2.929688 19.289062 3.660156 18.371094 4.757812 C 16.902344 6.222656 15.617188 8.054688 15.066406 10.617188 C 14.511719 12.628906 14.511719 14.824219 15.433594 17.023438 C 15.433594 17.023438 15.25 17.023438 15.25 17.023438 C 14.144531 17.023438 13.226562 17.753906 14.328125 21.78125 C 15.25 24.894531 15.984375 25.808594 16.71875 25.808594 C 16.902344 27.636719 17.636719 29.46875 18.554688 31.300781 L 18.554688 35.324219 C 18.554688 35.507812 18.371094 35.691406 18.1875 35.691406 C 16.71875 36.425781 9.003906 40.269531 2.019531 46.125 C 0.734375 47.222656 0 48.6875 0 50.335938 L 0 87.125 C 0 91.515625 1.46875 95.542969 4.226562 99.023438 Z M 10.105469 105.792969 "/>
</clipPath>
</defs>
<g id="surface1">
<g clip-path="url(#clip1)" clip-rule="nonzero">
<rect x="0" y="0" width="56" height="179" style="fill:rgb(84.706116%,85.098267%,87.451172%);fill-opacity:0.2309;stroke:none;"/>
</g>
</g>
</svg>
