<?xml version="1.0" encoding="UTF-8"?>
<svg width="18px" height="21px" viewBox="0 0 18 21" version="1.1" xmlns="http://www.w3.org/2000/svg" xmlns:xlink="http://www.w3.org/1999/xlink">
    <!-- Generator: Sketch 52.2 (67145) - http://www.bohemiancoding.com/sketch -->
    <title>noun_User_1904703_000000</title>
    <desc>Created with Sketch.</desc>
    <g id="Symbols" stroke="none" stroke-width="1" fill="none" fill-rule="evenodd">
        <g id="Bars-/-Navigation-Bar-/-x-/-Right-Combinations-/-Light---Bar-Button-Item" transform="translate(-122.000000, -12.000000)" fill="#4D7BF3" fill-rule="nonzero">
            <g id="noun_User_1904703_000000" transform="translate(122.000000, 12.000000)">
                <path d="M9,1.83910387 C5.56264859,1.83910387 2.81366589,4.5900611 2.81366589,7.93684521 C2.81366589,10.4532953 4.36498406,12.6577179 5.71381977,13.6048136 C6.10153394,13.8773886 6.21583266,14.4073081 5.97573307,14.8191141 C5.89904606,14.9505736 5.79105153,15.060418 5.66164377,15.1385835 L2.68052645,16.9369705 C2.13528118,17.2660746 1.80124832,17.8620117 1.80138005,18.5054267 L1.80138005,20.0875692 C1.79723777,20.5884998 1.39558824,20.9923708 0.9015552,20.9923708 C0.407522162,20.9923708 0.00587263294,20.5884998 0.00173034607,20.0875692 L0.00173034607,18.5054481 C0.00165691297,17.2184371 0.670081279,16.0265236 1.76090887,15.3685356 L3.66132531,14.2225173 C2.26299202,12.795501 1.01403728,10.5253839 1.01403726,7.93592566 C1.01401617,3.54078818 4.6106583,0.0142637373 9,0.0142637373 C13.3893628,0.0142637373 16.9859627,3.53986863 16.9859627,7.93684521 C16.9859627,10.5253839 15.7370291,12.795501 14.3386747,14.2225173 L16.2391122,15.3685356 C17.3299567,16.026504 17.9983813,17.2184324 17.9982697,18.5054481 L17.9982697,20.0875906 C17.9982669,20.3295773 17.903471,20.5616536 17.7347324,20.7327739 C17.5659742,20.9038744 17.3371016,20.9999972 17.0984553,21 L4.68082381,21 C4.44214933,21.0000571 4.21323371,20.9039444 4.04446239,20.7328167 C3.83193274,20.5173269 3.73953275,20.2084718 3.798172,19.9095696 C3.85681125,19.6106673 4.05874726,19.3611835 4.33642856,19.2445754 C4.44561644,19.1987249 4.56264337,19.1751372 4.68082381,19.1751599 L16.1986199,19.1751599 L16.1986199,18.5054481 C16.1987603,17.8620363 15.8647349,17.2660983 15.3194946,16.9369919 L12.3383562,15.1395031 C11.9323424,14.8948355 11.7819963,14.3734913 11.9940453,13.9455611 C12.0617301,13.8089599 12.1621759,13.691791 12.2861592,13.6048136 C13.6359017,12.6577179 15.186313,10.4532953 15.186313,7.93684521 C15.186313,4.5900611 12.4373303,1.83910387 9,1.83910387 Z M12.6712998,8.09376783 C12.8807683,8.2099934 13.0361145,8.40584614 13.1031541,8.6382281 C13.1701551,8.87063978 13.1433052,9.12052528 13.0285176,9.33285337 L12.2393821,8.89489002 L13.0285176,9.33285337 L13.0276318,9.33467108 L13.0267249,9.33648881 L13.0240255,9.34106517 L13.0177196,9.35201427 C12.9969223,9.38985073 12.9744023,9.42668679 12.9502325,9.46240327 C12.9088545,9.52719961 12.8494658,9.61205499 12.7720665,9.70875763 C12.5654073,9.96764813 12.3288617,10.2004616 12.0675009,10.4022067 C11.4178318,10.9067841 10.4262139,11.3839674 9.02248166,11.4195519 C7.59445402,11.456056 6.55696598,10.9715377 5.87488201,10.4551344 C5.59861304,10.2472086 5.34708606,10.0074609 5.12535309,9.74070671 C5.03002236,9.62476025 4.94196138,9.50286184 4.86168931,9.37573014 L4.85538349,9.36659879 L4.85268401,9.36112423 L4.85177716,9.35930652 C4.85177716,9.35930652 4.85089139,9.35748881 5.62564361,8.89397047 L4.85089137,9.35748881 C4.60244016,8.92058724 4.75027855,8.36218138 5.18111434,8.11019145 C5.61199691,7.85831684 6.16265887,8.00822447 6.41119377,8.44505804 C6.42827645,8.47061303 6.4597845,8.51440937 6.50476889,8.56915479 C6.59655138,8.68046335 6.74323044,8.83556824 6.95018395,8.99159266 C7.35419985,9.29726883 8.00388999,9.61934724 8.97749727,9.59471182 C9.97451413,9.57007638 10.6035153,9.24068433 10.9733236,8.95327088 C11.1199988,8.84074413 11.2529105,8.71087526 11.3692411,8.56641751 C11.400477,8.52726772 11.4296226,8.48644958 11.4565525,8.44413849 C11.6990729,8.01043974 12.2399995,7.85442248 12.6713209,8.09376783 L12.6712998,8.09376783 Z" id="Shape"></path>
            </g>
        </g>
    </g>
</svg>